HIERARCHY
ROOT Hips
{
	OFFSET 0.000000 97.167313 0.000000
	CHANNELS 6 Xposition Yposition Zposition Xrotation Yrotation Zrotation
	JOINT Spine
	{
		OFFSET 0.000000 13.784798 0.064400
		CHANNELS 3 Xrotation Yrotation Zrotation
		JOINT Spine1
		{
			OFFSET 0.000000 12.037903 0.404700
			CHANNELS 3 Xrotation Yrotation Zrotation
			JOINT Spine2
			{
				OFFSET 0.000000 17.795601 0.420200
				CHANNELS 3 Xrotation Yrotation Zrotation
				JOINT Neck
				{
					OFFSET 0.000000 39.131302 11.954600
					CHANNELS 3 Xrotation Yrotation Zrotation
					JOINT Head
					{
						OFFSET 0.000000 14.456192 15.627699
						CHANNELS 3 Xrotation Yrotation Zrotation
						JOINT HeadTop_End
						{
							OFFSET 0.000000 15.703506 7.603401
							CHANNELS 3 Xrotation Yrotation Zrotation
							End Site
							{
								OFFSET 0.000000 17.447403 0.000000
							}
						}
					}
				}
				JOINT LeftShoulder
				{
					OFFSET 17.399500 24.608795 1.168800
					CHANNELS 3 Xrotation Yrotation Zrotation
					JOINT LeftArm
					{
						OFFSET 18.980635 5.765305 1.818600
						CHANNELS 3 Xrotation Yrotation Zrotation
						JOINT LeftForeArm
						{
							OFFSET 49.290169 0.000000 0.000000
							CHANNELS 3 Xrotation Yrotation Zrotation
							JOINT LeftHand
							{
								OFFSET 31.562012 0.000000 0.000000
								CHANNELS 3 Xrotation Yrotation Zrotation
								JOINT LeftHandThumb1
								{
									OFFSET 6.133995 -4.388519 7.076070
									CHANNELS 3 Xrotation Yrotation Zrotation
									JOINT LeftHandThumb2
									{
										OFFSET 6.037666 -3.485840 3.485847
										CHANNELS 3 Xrotation Yrotation Zrotation
										JOINT LeftHandThumb3
										{
											OFFSET 6.496506 -3.750763 3.750761
											CHANNELS 3 Xrotation Yrotation Zrotation
											JOINT LeftHandThumb4
											{
												OFFSET 5.616882 -3.242905 3.242910
												CHANNELS 3 Xrotation Yrotation Zrotation
												End Site
												{
													OFFSET -1.254608 7.132141 0.375429
												}
											}
										}
									}
								}
								JOINT LeftHandPinky1
								{
									OFFSET 18.920792 -0.453171 -11.426712
									CHANNELS 3 Xrotation Yrotation Zrotation
									JOINT LeftHandPinky2
									{
										OFFSET 4.919586 0.000000 0.000000
										CHANNELS 3 Xrotation Yrotation Zrotation
										JOINT LeftHandPinky3
										{
											OFFSET 5.233047 0.000000 0.000000
											CHANNELS 3 Xrotation Yrotation Zrotation
											JOINT LeftHandPinky4
											{
												OFFSET 5.571716 0.000000 0.000000
												CHANNELS 3 Xrotation Yrotation Zrotation
												End Site
												{
													OFFSET -3.459808 4.342407 -0.466164
												}
											}
										}
									}
								}
								JOINT LeftHandRing1
								{
									OFFSET 22.726120 -0.094986 -6.500475
									CHANNELS 3 Xrotation Yrotation Zrotation
									JOINT LeftHandRing2
									{
										OFFSET 6.408615 0.000000 0.000000
										CHANNELS 3 Xrotation Yrotation Zrotation
										JOINT LeftHandRing3
										{
											OFFSET 6.150223 0.000000 0.000000
											CHANNELS 3 Xrotation Yrotation Zrotation
											JOINT LeftHandRing4
											{
												OFFSET 6.145386 0.000000 0.000000
												CHANNELS 3 Xrotation Yrotation Zrotation
												End Site
												{
													OFFSET -3.671402 4.923981 -0.202372
												}
											}
										}
									}
								}
								JOINT LeftHandMiddle1
								{
									OFFSET 23.373947 0.000000 0.000001
									CHANNELS 3 Xrotation Yrotation Zrotation
									JOINT LeftHandMiddle2
									{
										OFFSET 6.996567 0.000000 0.000000
										CHANNELS 3 Xrotation Yrotation Zrotation
										JOINT LeftHandMiddle3
										{
											OFFSET 7.015945 0.000000 0.000000
											CHANNELS 3 Xrotation Yrotation Zrotation
											JOINT LeftHandMiddle4
											{
												OFFSET 7.721573 0.000000 0.000000
												CHANNELS 3 Xrotation Yrotation Zrotation
												End Site
												{
													OFFSET -4.651108 6.158463 0.251582
												}
											}
										}
									}
								}
								JOINT LeftHandIndex1
								{
									OFFSET 21.310577 -0.490082 6.209344
									CHANNELS 3 Xrotation Yrotation Zrotation
									JOINT LeftHandIndex2
									{
										OFFSET 7.536453 0.000000 0.000000
										CHANNELS 3 Xrotation Yrotation Zrotation
										JOINT LeftHandIndex3
										{
											OFFSET 7.512344 0.000000 0.000000
											CHANNELS 3 Xrotation Yrotation Zrotation
											JOINT LeftHandIndex4
											{
												OFFSET 10.212402 0.000000 0.000001
												CHANNELS 3 Xrotation Yrotation Zrotation
												End Site
												{
													OFFSET -5.180801 8.690506 1.388433
												}
											}
										}
									}
								}
							}
						}
					}
				}
				JOINT RightShoulder
				{
					OFFSET -17.399500 24.608795 1.168800
					CHANNELS 3 Xrotation Yrotation Zrotation
					JOINT RightArm
					{
						OFFSET -18.980635 5.765305 1.818600
						CHANNELS 3 Xrotation Yrotation Zrotation
						JOINT RightForeArm
						{
							OFFSET -49.290169 0.000000 0.000000
							CHANNELS 3 Xrotation Yrotation Zrotation
							JOINT RightHand
							{
								OFFSET -31.562012 0.000000 0.000000
								CHANNELS 3 Xrotation Yrotation Zrotation
								JOINT RightHandThumb1
								{
									OFFSET -6.133995 -4.388519 7.076070
									CHANNELS 3 Xrotation Yrotation Zrotation
									JOINT RightHandThumb2
									{
										OFFSET -6.037666 -3.485840 3.485847
										CHANNELS 3 Xrotation Yrotation Zrotation
										JOINT RightHandThumb3
										{
											OFFSET -6.496506 -3.750763 3.750761
											CHANNELS 3 Xrotation Yrotation Zrotation
											JOINT RightHandThumb4
											{
												OFFSET -5.616882 -3.242905 3.242910
												CHANNELS 3 Xrotation Yrotation Zrotation
												End Site
												{
													OFFSET 1.254608 7.132141 0.375429
												}
											}
										}
									}
								}
								JOINT RightHandIndex1
								{
									OFFSET -21.310577 -0.490082 6.209344
									CHANNELS 3 Xrotation Yrotation Zrotation
									JOINT RightHandIndex2
									{
										OFFSET -7.536453 0.000000 0.000000
										CHANNELS 3 Xrotation Yrotation Zrotation
										JOINT RightHandIndex3
										{
											OFFSET -7.512344 0.000000 0.000000
											CHANNELS 3 Xrotation Yrotation Zrotation
											JOINT RightHandIndex4
											{
												OFFSET -10.212402 0.000000 0.000001
												CHANNELS 3 Xrotation Yrotation Zrotation
												End Site
												{
													OFFSET 5.180801 8.690506 1.388433
												}
											}
										}
									}
								}
								JOINT RightHandMiddle1
								{
									OFFSET -23.373947 0.000000 0.000001
									CHANNELS 3 Xrotation Yrotation Zrotation
									JOINT RightHandMiddle2
									{
										OFFSET -6.996567 0.000000 0.000000
										CHANNELS 3 Xrotation Yrotation Zrotation
										JOINT RightHandMiddle3
										{
											OFFSET -7.015945 0.000000 0.000000
											CHANNELS 3 Xrotation Yrotation Zrotation
											JOINT RightHandMiddle4
											{
												OFFSET -7.721573 0.000000 0.000000
												CHANNELS 3 Xrotation Yrotation Zrotation
												End Site
												{
													OFFSET 4.651108 6.158463 0.251582
												}
											}
										}
									}
								}
								JOINT RightHandRing1
								{
									OFFSET -22.726120 -0.094986 -6.500475
									CHANNELS 3 Xrotation Yrotation Zrotation
									JOINT RightHandRing2
									{
										OFFSET -6.408615 0.000000 0.000000
										CHANNELS 3 Xrotation Yrotation Zrotation
										JOINT RightHandRing3
										{
											OFFSET -6.150223 0.000000 0.000000
											CHANNELS 3 Xrotation Yrotation Zrotation
											JOINT RightHandRing4
											{
												OFFSET -6.145386 0.000000 0.000000
												CHANNELS 3 Xrotation Yrotation Zrotation
												End Site
												{
													OFFSET 3.671402 4.923981 -0.202372
												}
											}
										}
									}
								}
								JOINT RightHandPinky1
								{
									OFFSET -18.920792 -0.453171 -11.426712
									CHANNELS 3 Xrotation Yrotation Zrotation
									JOINT RightHandPinky2
									{
										OFFSET -4.919586 0.000000 0.000000
										CHANNELS 3 Xrotation Yrotation Zrotation
										JOINT RightHandPinky3
										{
											OFFSET -5.233047 0.000000 0.000000
											CHANNELS 3 Xrotation Yrotation Zrotation
											JOINT RightHandPinky4
											{
												OFFSET -5.571716 0.000000 0.000000
												CHANNELS 3 Xrotation Yrotation Zrotation
												End Site
												{
													OFFSET 3.459808 4.342407 -0.466164
												}
											}
										}
									}
								}
							}
						}
					}
				}
			}
		}
	}
	JOINT LeftUpLeg
	{
		OFFSET 19.899099 -7.885101 -3.429500
		CHANNELS 3 Xrotation Yrotation Zrotation
		JOINT LeftLeg
		{
			OFFSET 1.745560 -36.997807 10.304700
			CHANNELS 3 Xrotation Yrotation Zrotation
			JOINT LeftFoot
			{
				OFFSET -1.745558 -29.803308 -13.615400
				CHANNELS 3 Xrotation Yrotation Zrotation
				JOINT LeftToeBase
				{
					OFFSET 1.181900 -18.539904 15.226099
					CHANNELS 3 Xrotation Yrotation Zrotation
					JOINT LeftToe_End
					{
						OFFSET -0.863701 1.402801 16.534700
						CHANNELS 3 Xrotation Yrotation Zrotation
						End Site
						{
							OFFSET 0.000000 16.616566 0.000000
						}
					}
				}
			}
		}
	}
	JOINT RightUpLeg
	{
		OFFSET -19.899099 -7.885101 -3.429500
		CHANNELS 3 Xrotation Yrotation Zrotation
		JOINT RightLeg
		{
			OFFSET -1.745560 -36.997807 10.304700
			CHANNELS 3 Xrotation Yrotation Zrotation
			JOINT RightFoot
			{
				OFFSET 1.745558 -29.803308 -13.615400
				CHANNELS 3 Xrotation Yrotation Zrotation
				JOINT RightToeBase
				{
					OFFSET -1.181900 -18.539904 15.226099
					CHANNELS 3 Xrotation Yrotation Zrotation
					JOINT RightToe_End
					{
						OFFSET 0.863701 1.402801 16.534700
						CHANNELS 3 Xrotation Yrotation Zrotation
						End Site
						{
							OFFSET 0.000000 16.616566 0.000000
						}
					}
				}
			}
		}
	}
}
MOTION
Frames: 4
Frame Time: 0.033333
-3.453322 71.664009 6.809268 13.879668 -69.023979 15.418981 7.984950 5.553628 0.471772 9.889416 9.230940 -7.581078 10.057324 9.197476 -7.374121 -4.828392 13.316072 -3.080659 -16.348229 28.494011 2.202139 -0.000000 0.000000 -0.000001 6.504012 -0.839775 -10.247311 -27.315900 31.526131 -63.113660 -88.465300 14.260399 -58.334508 -16.238467 27.694237 -27.533408 0.699146 9.503429 -2.418122 5.975199 12.647515 1.348338 -23.873564 -17.664281 1.604916 -0.000003 0.000003 0.000002 -7.938269 1.609084 -6.495668 2.210588 4.583649 -51.475185 0.883783 3.096089 -31.858144 -0.000001 0.000003 -0.000000 1.254241 -0.073705 -17.945765 3.754082 5.463613 -68.965212 5.298468 9.638360 -33.747043 0.000001 0.000000 0.000003 10.058164 -1.800572 -20.644718 1.774250 4.200529 -45.781986 1.632178 4.057798 -43.809373 -0.000001 -0.000001 0.000004 9.479719 -1.289768 -20.785560 0.709478 2.796426 -28.467129 0.714032 2.804792 -28.559705 -0.000004 0.000003 0.000002 18.535281 41.728928 -11.231817 -33.410714 -2.345459 39.566343 -50.174255 79.021614 90.286331 -29.991460 14.007054 27.561529 13.942488 -4.273682 -5.300365 7.113132 -20.767479 -2.619431 -3.463356 -24.899730 -18.660452 0.000003 -0.000001 0.000002 0.357803 -5.832726 5.175873 0.094336 -0.933637 11.539867 0.777667 -2.578448 33.559940 -0.000002 -0.000003 -0.000002 3.764147 -12.080533 1.143757 5.714349 -4.535905 103.133391 3.160471 -4.410659 71.234973 0.000000 -0.000000 -0.000001 -12.155615 -12.623931 9.228348 6.566857 -4.248417 114.232339 3.755103 -4.569178 78.819748 -0.000002 0.000001 -0.000003 -17.635706 -10.496802 3.325448 4.993682 -4.645005 94.147888 3.647345 -4.546581 77.463429 -0.000000 0.000001 0.000006 -62.756782 -18.287700 -5.026846 106.865468 -0.736886 -5.623119 34.797604 -11.001385 -0.492810 -1.745406 1.382408 -11.998365 -0.000000 0.000000 0.000001 -23.792643 -9.327713 0.319902 66.777496 5.201876 4.260472 -49.462362 -3.617597 -12.479020 -0.003917 -2.439151 -0.000225 0.000000 0.000000 -0.000000 
-30.049828 71.672348 5.661458 16.256701 -71.866772 19.425359 7.480492 7.386684 -1.986462 9.522242 11.055391 -9.029480 9.696047 11.050568 -8.756169 -4.740629 13.290895 -2.844602 -16.810894 25.384116 3.696108 -0.000001 -0.000000 -0.000001 7.487723 2.043916 -11.945283 -26.293559 28.744940 -62.126861 -91.597249 13.171012 -69.988416 -18.769990 27.052300 -15.993496 0.699146 9.503434 -2.418117 5.975201 12.647516 1.348339 -23.873562 -17.664281 1.604921 -0.000000 0.000002 0.000002 -7.938274 1.609085 -6.495661 2.210586 4.583649 -51.475185 0.883780 3.096086 -31.858140 -0.000002 -0.000003 0.000001 1.254246 -0.073706 -17.945762 3.754078 5.463610 -68.965212 5.298467 9.638354 -33.747043 -0.000003 -0.000001 0.000003 10.058163 -1.800576 -20.644710 1.774251 4.200529 -45.781993 1.632178 4.057800 -43.809363 0.000000 0.000000 0.000004 9.479720 -1.289766 -20.785553 0.709477 2.796424 -28.467131 0.714034 2.804787 -28.559705 -0.000002 0.000003 0.000002 23.912796 46.095294 -16.197073 -35.811351 -4.824991 36.916851 -83.696605 80.911848 124.458901 -36.432297 14.403795 22.692772 13.942489 -4.273677 -5.300361 7.113133 -20.767486 -2.619424 -3.463359 -24.899726 -18.660458 0.000003 0.000002 -0.000002 0.357805 -5.832726 5.175870 0.094334 -0.933639 11.539875 0.777670 -2.578443 33.559940 0.000002 -0.000001 -0.000001 3.764148 -12.080536 1.143762 5.714347 -4.535901 103.133391 3.160472 -4.410661 71.234980 -0.000000 -0.000000 -0.000004 -12.155609 -12.623930 9.228354 6.566850 -4.248418 114.232346 3.755099 -4.569184 78.819748 -0.000002 -0.000000 -0.000005 -17.635704 -10.496800 3.325450 4.993679 -4.645005 94.147888 3.647344 -4.546584 77.463436 -0.000001 0.000001 0.000004 -83.397573 -12.911817 -7.413539 97.533749 5.755082 -5.049595 29.224662 -9.027677 -7.598907 0.392395 1.104107 -4.295881 -0.000003 -0.000000 -0.000000 14.878346 -11.702977 9.662350 40.215993 7.274379 2.166656 -59.485552 3.424986 -16.382277 -0.000896 -2.482916 -0.000045 -0.000000 0.000000 0.000000 
-55.217758 77.021286 4.747182 15.122401 -70.439802 18.001583 5.984500 8.100707 -0.998377 10.115777 12.540273 -10.867188 10.423471 12.581629 -10.426728 -4.555061 12.571514 -2.673939 -17.626480 20.901861 4.673165 -0.000000 0.000000 -0.000000 8.770888 4.519234 -13.591315 -29.951455 19.989274 -60.080796 -96.115761 14.312680 -70.976491 -16.360432 26.903673 -11.122056 0.699149 9.503433 -2.418120 5.975204 12.647522 1.348338 -23.873564 -17.664283 1.604921 0.000002 -0.000004 0.000002 -7.938271 1.609084 -6.495666 2.210588 4.583647 -51.475185 0.883780 3.096087 -31.858140 -0.000004 -0.000003 -0.000003 1.254241 -0.073707 -17.945764 3.754079 5.463610 -68.965219 5.298469 9.638362 -33.747039 -0.000002 0.000001 0.000002 10.058163 -1.800576 -20.644716 1.774249 4.200530 -45.781986 1.632175 4.057800 -43.809373 0.000002 -0.000001 0.000001 9.479716 -1.289769 -20.785562 0.709480 2.796428 -28.467131 0.714036 2.804785 -28.559707 -0.000003 0.000002 -0.000006 30.439397 47.844625 -21.543976 -38.831948 -6.897776 34.541534 -88.447692 80.250406 129.556135 -38.235471 18.800471 19.092021 13.942486 -4.273677 -5.300366 7.113133 -20.767480 -2.619428 -3.463354 -24.899735 -18.660456 -0.000001 -0.000003 0.000002 0.357808 -5.832725 5.175866 0.094335 -0.933643 11.539874 0.777668 -2.578453 33.559940 0.000001 -0.000002 0.000003 3.764146 -12.080532 1.143759 5.714351 -4.535905 103.133391 3.160471 -4.410660 71.234966 0.000000 0.000001 -0.000004 -12.155610 -12.623929 9.228347 6.566854 -4.248417 114.232339 3.755101 -4.569177 78.819755 0.000000 -0.000000 -0.000005 -17.635704 -10.496799 3.325452 4.993684 -4.645001 94.147888 3.647343 -4.546585 77.463436 -0.000000 -0.000002 -0.000001 -79.055826 -10.987263 -10.375184 74.301468 12.549519 -2.536485 13.238957 -2.485174 -11.523143 1.749133 0.582661 4.730843 0.000001 -0.000001 0.000001 31.971911 -10.648695 15.035179 16.794189 5.423764 0.928595 -11.825421 -9.629154 -10.829966 -46.507649 -1.778391 0.207530 -0.000000 0.000000 -0.000000 
-74.543915 77.449051 4.413891 13.557627 -67.323351 16.986894 4.187391 9.052217 -0.317402 11.192557 13.137500 -11.766413 11.701046 13.253209 -11.058610 -4.215735 11.509515 -2.448854 -17.810495 16.827570 3.727536 -0.000001 0.000000 -0.000000 10.055702 6.354322 -15.134106 -35.961513 9.406081 -60.682160 -102.095796 12.898341 -60.573526 -11.433941 30.258899 -13.675750 0.699148 9.503431 -2.418119 5.975203 12.647513 1.348338 -23.873565 -17.664283 1.604916 0.000002 -0.000000 -0.000001 -7.938270 1.609081 -6.495667 2.210586 4.583648 -51.475188 0.883783 3.096090 -31.858137 0.000000 -0.000003 0.000001 1.254244 -0.073709 -17.945765 3.754081 5.463608 -68.965219 5.298468 9.638360 -33.747049 -0.000002 -0.000001 0.000005 10.058164 -1.800584 -20.644715 1.774249 4.200530 -45.781986 1.632176 4.057800 -43.809370 0.000000 -0.000002 0.000008 9.479721 -1.289769 -20.785558 0.709478 2.796424 -28.467131 0.714036 2.804788 -28.559705 -0.000002 0.000003 0.000002 35.568955 46.014646 -24.395465 -41.715927 -6.264312 34.837926 -60.437393 78.359830 101.188494 -34.457693 23.716490 17.716023 13.942489 -4.273682 -5.300366 7.113131 -20.767482 -2.619438 -3.463358 -24.899730 -18.660458 0.000001 0.000000 0.000001 0.357807 -5.832726 5.175867 0.094336 -0.933641 11.539873 0.777670 -2.578449 33.559936 -0.000001 -0.000003 -0.000002 3.764148 -12.080532 1.143751 5.714349 -4.535905 103.133398 3.160470 -4.410661 71.234966 -0.000000 0.000000 -0.000008 -12.155609 -12.623927 9.228352 6.566851 -4.248417 114.232346 3.755098 -4.569178 78.819741 -0.000001 -0.000000 0.000000 -17.635704 -10.496799 3.325443 4.993679 -4.645003 94.147894 3.647346 -4.546582 77.463436 0.000002 0.000000 -0.000003 -75.975876 -9.423735 -14.368573 51.874040 16.431989 0.475976 13.580168 -2.128138 -9.969727 -0.610028 0.003526 9.496862 0.000000 0.000000 -0.000000 23.370165 -20.952567 10.002038 35.576048 6.675388 2.968215 26.004863 -9.131719 -2.362160 -27.168266 -1.620221 11.149762 0.000001 -0.000000 0.000000 
